<svg width="100" height="100" viewBox="0 0 100 100" fill="none" xmlns="http://www.w3.org/2000/svg">
<path d="M74.5499 25.3841C73.0012 26.9357 74.0981 29.5885 76.2882 29.5885H90.6348C91.9925 29.5885 93.0931 28.4859 93.0931 27.1257V12.7528C93.0931 10.5586 90.4451 9.45979 88.8964 11.0113L87.2931 12.6176C86.3417 13.5708 84.8059 13.5754 83.7984 12.682C76.3946 6.11667 67.2064 1.86237 57.3692 0.485627C46.5169 -1.0332 35.4661 1.03291 25.891 6.37094C16.3159 11.709 8.73839 20.0281 4.30633 30.0678C0.206375 39.3553 -0.995159 49.6471 0.827062 59.5984C1.07205 60.9363 2.40109 61.7577 3.72299 61.4473L9.74727 60.0329C11.0692 59.7226 11.8816 58.3981 11.655 57.057C10.3725 49.4649 11.3385 41.6424 14.4617 34.5674C17.9173 26.7397 23.8252 20.2537 31.2905 16.0918C38.7558 11.9299 47.3717 10.3191 55.8329 11.5032C63.2546 12.5419 70.2025 15.6814 75.8745 20.5214C76.92 21.4136 76.9283 23.0014 75.9571 23.9743L74.5499 25.3841Z" fill="white"/>
<path d="M39.845 25.3739C40.8514 24.3656 42.1887 23.811 43.6112 23.8104C45.0329 23.8111 46.371 24.3656 47.3774 25.374C48.3823 26.3814 48.9357 27.7219 48.9365 29.1462V48.8332C48.4022 48.6878 47.8541 48.6155 47.2975 48.6155C46.6527 48.6155 46.0124 48.7132 45.3576 48.9194C44.5784 49.19 43.8208 49.3277 43.1069 49.3277C41.864 49.3262 40.7884 48.9177 39.9962 48.1463C39.2877 47.4534 38.8817 46.5059 38.8817 45.5484C38.8824 44.6808 39.1894 43.8726 39.7928 43.1466C40.2189 42.6344 40.1505 41.8707 39.6392 41.4422C39.4228 41.2608 39.1479 41.1608 38.8654 41.1608C38.5062 41.1608 38.1684 41.3184 37.9381 41.5953C36.9723 42.7513 36.4635 44.1179 36.4642 45.5476C36.4649 47.1557 37.1373 48.7339 38.3081 49.8782C39.5395 51.0842 41.2399 51.7487 43.106 51.7487C44.0864 51.7487 45.105 51.5672 46.1153 51.2173C46.5014 51.0973 46.8991 51.0358 47.2967 51.0358C47.8633 51.0364 48.4236 51.1611 48.9365 51.3979V58.7549H44.4272C43.7617 58.7549 43.2197 59.298 43.2197 59.9655C43.2197 60.6331 43.7617 61.1753 44.4272 61.1753H48.9365V70.8756C48.9358 72.2999 48.3823 73.6405 47.3774 74.6487C46.371 75.6563 45.0329 76.2108 43.6112 76.2115C42.1888 76.2107 40.8514 75.6563 39.845 74.6487C38.8393 73.6396 38.2851 72.2999 38.2851 70.8756C38.2844 70.241 38.4272 69.5512 38.6858 68.9336C38.9706 68.2531 39.3897 67.67 39.8988 67.2456C40.4092 66.8179 40.4776 66.0534 40.0523 65.5412C39.8219 65.2643 39.4843 65.1059 39.1241 65.1059C38.8424 65.1059 38.5676 65.2058 38.3504 65.3873C37.5457 66.0594 36.8918 66.9616 36.4588 67.9968C36.0734 68.9174 35.8692 69.9117 35.8692 70.8754C35.8692 71.4784 35.9375 72.0752 36.0742 72.6566C35.5169 72.8473 34.9266 72.9473 34.3431 72.9473C33.0397 72.9465 31.7838 72.4673 30.808 71.5983C29.6742 70.5862 29.0231 69.1327 29.0225 67.6099C29.0225 66.9646 29.1369 66.3333 29.3626 65.731C29.5914 65.1212 29.9306 64.5597 30.3683 64.0652C30.5831 63.8238 30.6906 63.513 30.6722 63.1908C30.653 62.867 30.5094 62.5709 30.2684 62.3564C30.0466 62.1587 29.7618 62.051 29.4662 62.051C29.1208 62.051 28.7914 62.1987 28.5619 62.4578L28.4721 62.5602L28.4245 62.5664C28.3539 62.574 28.2694 62.5747 28.0936 62.5747C26.6718 62.574 25.3338 62.0195 24.3274 61.012C23.3218 60.0031 22.7684 58.6633 22.7675 57.2397C22.7684 56.243 23.0438 55.2717 23.5636 54.4311C24.071 53.6128 24.7903 52.9453 25.6432 52.5023C26.4055 52.1047 27.23 51.9039 28.0936 51.9039C29.2919 51.9039 30.4212 52.293 31.363 53.0282C31.6148 53.3044 32.3656 54.0836 33.4595 54.8595C34.2471 55.417 35.057 55.8632 35.8677 56.1861C36.9102 56.6014 37.958 56.8121 38.9829 56.8129C39.6492 56.8129 40.1912 56.2699 40.1912 55.6023C40.1912 54.9348 39.6492 54.3919 38.9829 54.3919C38.2681 54.3919 37.5196 54.2388 36.7589 53.9366C35.6434 53.4928 34.7031 52.806 34.1097 52.3076C33.8418 52.0823 33.5853 51.8469 33.3481 51.607C33.2644 51.5223 33.2007 51.4554 33.1593 51.4101L33.0678 51.307L32.948 51.1978C31.5808 50.0919 29.8574 49.4828 28.0933 49.4828C27.6088 49.4828 27.1206 49.5297 26.6385 49.622C25.5876 48.6569 24.9619 47.3079 24.9113 45.8781C24.9097 45.8135 24.9089 45.7489 24.9089 45.685C24.9089 44.3007 25.4379 42.9872 26.399 41.9874C27.3632 40.9853 28.659 40.4062 30.0454 40.3562C30.11 40.3547 30.1729 40.3539 30.2366 40.3539C30.513 40.3539 30.7894 40.3747 31.0565 40.4169C31.1194 40.4261 31.1824 40.4308 31.2438 40.4308C31.8426 40.4308 32.3438 39.9994 32.4367 39.4049C32.5381 38.7458 32.086 38.1267 31.4266 38.0236C31.0358 37.9629 30.6351 37.9329 30.2366 37.9329H30.2221C29.7999 37.1523 29.5781 36.2801 29.5781 35.3895C29.5788 34.0783 30.0585 32.8163 30.9314 31.8387C31.9401 30.7067 33.3886 30.0576 34.9049 30.0568C36.1907 30.0568 37.4306 30.5229 38.4016 31.3696C38.6151 31.6111 39.4449 32.5325 40.5295 33.4953C41.2703 34.1521 41.9789 34.6936 42.6352 35.1035C43.0537 35.3642 43.4406 35.5672 43.8199 35.7249C44.2759 35.9148 44.6981 36.0302 45.1111 36.0764L45.2447 36.084C45.8603 36.084 46.3761 35.621 46.4444 35.0073C46.4806 34.6857 46.3893 34.3697 46.1874 34.1174C45.9863 33.8652 45.6984 33.706 45.3767 33.6698C45.254 33.6559 45.0452 33.6137 44.7458 33.4891C44.3144 33.3099 43.7931 32.9977 43.2366 32.5854C42.3975 31.9648 41.606 31.2157 41.0894 30.6958C40.8038 30.4097 40.5705 30.1605 40.4101 29.9867L40.2328 29.7914L40.1444 29.69L40.0592 29.6061C39.5349 29.1369 38.9553 28.7455 38.3327 28.4363C38.4862 27.282 39.0144 26.206 39.845 25.3739Z" fill="white"/>
<path d="M74.6465 52.5023C75.5002 52.9453 76.2186 53.6128 76.7261 54.4311C77.2458 55.2717 77.5215 56.2431 77.5222 57.239C77.5214 58.6634 76.9679 60.0031 75.9623 61.0121C74.9557 62.0196 73.6177 62.5741 72.196 62.5749C72.1015 62.5749 72.0332 62.5741 71.9841 62.5734C71.9281 62.571 71.9043 62.5687 71.8667 62.5634L71.8114 62.5541L71.7277 62.458C71.4982 62.1988 71.1688 62.0512 70.8234 62.0512C70.5279 62.0512 70.2431 62.1588 70.0204 62.3565C69.5237 62.8002 69.4785 63.5662 69.9207 64.0654C70.359 64.5598 70.6984 65.1205 70.9271 65.7304C71.152 66.3326 71.2672 66.9648 71.2672 67.6101C71.2664 69.1335 70.6155 70.587 69.4808 71.5984C68.5059 72.4674 67.2499 72.9466 65.9465 72.9474C65.3631 72.9474 64.7728 72.8474 64.2154 72.6567C64.3519 72.0737 64.421 71.4769 64.4203 70.8755C64.4203 70.1218 64.2913 69.3259 64.0456 68.5729C63.6265 67.2918 62.8979 66.1896 61.9383 65.386C61.3888 64.9275 60.7684 64.5715 60.0952 64.3293C59.3759 64.0693 58.5928 63.9378 57.7676 63.9378C57.1013 63.9378 56.5593 64.4806 56.5593 65.1491C56.5593 65.8158 57.1013 66.358 57.7669 66.358C58.4908 66.3596 59.1179 66.4981 59.6845 66.781C60.4176 67.1502 61.0033 67.7454 61.4241 68.5522C61.7941 69.2575 62.0052 70.1043 62.0044 70.8756C62.0044 72.3 61.4503 73.6397 60.4446 74.6488C59.438 75.6563 58.1008 76.2108 56.6791 76.2115C55.2565 76.2107 53.9193 75.6563 52.9121 74.6488C51.9073 73.6405 51.3538 72.3 51.353 70.8756V48.6608C52.3595 48.7139 53.2438 48.8401 53.9892 49.0346C54.7614 49.2362 55.3809 49.5046 55.883 49.8552C56.253 50.1144 56.5531 50.4144 56.8019 50.772C57.1688 51.2965 57.4306 51.9618 57.6517 52.9293C57.7261 53.2494 57.791 53.5774 57.8564 53.9078L57.8629 53.9405L57.8761 54.0076C57.9378 54.321 58 54.6369 58.071 54.9527C58.2198 55.6072 58.371 56.1047 58.5623 56.5662C58.7473 57.0131 58.9622 57.4029 59.2202 57.7552C59.6623 58.365 60.2342 58.8604 60.919 59.2249C61.6383 59.6095 62.4788 59.8601 63.4899 59.9901L63.6465 60.0009C64.2507 60.0009 64.7658 59.5472 64.8441 58.9442C64.8847 58.6243 64.7987 58.3059 64.6007 58.049C64.4027 57.7937 64.1179 57.6306 63.8001 57.5906C62.9732 57.483 62.3362 57.2799 61.8532 56.9707C61.514 56.7508 61.2553 56.4847 61.0411 56.1309C60.8675 55.8471 60.7218 55.498 60.5935 55.0627C60.4558 54.5968 60.3518 54.0719 60.2416 53.5159L60.2366 53.4908C60.1713 53.1569 60.1037 52.8148 60.0262 52.4687C59.8849 51.8441 59.6723 51.0243 59.2754 50.2192C58.9698 49.603 58.583 49.0554 58.1246 48.5917C57.3486 47.8065 56.3175 47.2111 55.0624 46.8244C54.01 46.4983 52.7925 46.3052 51.3531 46.2376V40.2657H56.3153C56.9815 40.2657 57.5235 39.7226 57.5235 39.0551C57.5235 38.3884 56.9815 37.8446 56.3153 37.8446H51.3531V29.1464C51.3539 27.7222 51.9073 26.3816 52.913 25.3741C53.9193 24.3658 55.2565 23.8113 56.6791 23.8106C58.1009 23.8113 59.4381 24.3658 60.4446 25.3741C61.2752 26.2062 61.8033 27.2814 61.9568 28.4373C61.3328 28.7464 60.7532 29.1387 60.2297 29.607C59.9894 29.8224 59.8466 30.1185 59.8281 30.4416C59.8106 30.7638 59.9188 31.0745 60.1329 31.3153C60.3617 31.5728 60.6903 31.7205 61.035 31.7205C61.3321 31.7205 61.6177 31.6113 61.8395 31.4129C62.8159 30.5392 64.0749 30.0578 65.3838 30.0578C66.9008 30.0578 68.3493 30.7077 69.3589 31.8397C70.2087 32.795 70.6586 33.9739 70.6601 35.2506C70.6608 36.4865 70.2241 37.7424 69.4695 38.7414L69.3912 38.8383C69.2269 39.0498 69.055 39.2467 68.8791 39.4252C68.5721 39.7357 68.1323 40.058 67.6087 40.3556C66.8148 40.8079 65.9436 41.144 65.3525 41.3463C65.0255 41.4569 64.7491 41.5407 64.5542 41.5961L64.3369 41.6554L64.4881 42.2453L64.2685 41.6738L64.2448 41.6791C63.9407 41.7592 63.6852 41.9499 63.5216 42.2198C63.3535 42.4951 63.3021 42.8197 63.3781 43.1349C63.5108 43.6795 63.9929 44.0594 64.5526 44.0594C64.6477 44.0594 64.7429 44.0486 64.832 44.0271C64.8412 44.0255 65.7655 43.8033 66.9453 43.338C67.6262 43.0687 68.2512 42.7735 68.8024 42.4604C69.5339 42.0428 70.1203 41.6075 70.5963 41.1276C70.7138 41.0091 70.8273 40.8868 70.9364 40.763C71.0846 40.7677 71.2335 40.7799 71.3809 40.7983C72.5946 40.9492 73.7069 41.5399 74.5138 42.4596C75.3143 43.3733 75.755 44.5423 75.755 45.7482C75.755 45.955 75.742 46.1643 75.7159 46.3719C75.5531 47.6886 74.9007 48.8491 73.8689 49.6674C73.3177 49.5443 72.7558 49.4828 72.1938 49.4828C70.4321 49.4828 68.7087 50.0919 67.3407 51.1978C67.0897 51.4016 66.9323 51.69 66.8986 52.0122C66.8639 52.3338 66.9569 52.6491 67.1595 52.9005C67.3899 53.1867 67.7329 53.3505 68.1007 53.3505C68.3754 53.3505 68.6442 53.2552 68.8583 53.0821C69.8125 52.3115 70.9664 51.9039 72.1961 51.9039C72.5823 51.9039 72.9668 51.9455 73.3416 52.0278C73.5419 52.1671 73.7798 52.2424 74.0286 52.2424H74.0585C74.2689 52.3208 74.4661 52.4069 74.6465 52.5023Z" fill="white"/>
<path d="M23.7118 70.4115C25.9019 70.4115 26.9988 73.0643 25.4501 74.6159L24.0429 76.0257C23.0717 76.9986 23.08 78.5864 24.1255 79.4786C29.7969 84.3181 36.744 87.4574 44.1648 88.4964C52.6251 89.681 61.2403 88.0711 68.7054 83.9105C76.1705 79.7499 82.0788 73.2653 85.5354 65.439C88.6596 58.3653 89.6271 50.5438 88.3465 42.9522C88.1203 41.611 88.933 40.2868 90.255 39.9767L96.2796 38.5637C97.6016 38.2537 98.9304 39.0754 99.1751 40.4133C100.995 50.3641 99.7912 60.6546 95.69 69.9404C91.2566 79.9784 83.6786 88.2956 74.1038 93.632C64.529 98.9684 53.4791 101.033 42.6278 99.514C32.7918 98.1368 23.6047 93.8827 16.2016 87.318C15.1941 86.4246 13.6583 86.4292 12.7069 87.3824L11.1036 88.9887C9.55488 90.5402 6.90686 89.4414 6.90686 87.2472L6.90686 72.8743C6.90686 71.5141 8.00752 70.4115 9.36524 70.4115H23.7118Z" fill="white"/>
</svg>
