<svg width="21" height="21" viewBox="0 0 21 21" fill="none" xmlns="http://www.w3.org/2000/svg">
<path d="M3 5.5C3 4.11929 4.11929 3 5.5 3H10.5C11.3284 3 12 2.32843 12 1.5C12 0.671573 11.3284 0 10.5 0H5.5C2.46243 0 0 2.46243 0 5.5V15.5C0 18.5376 2.46243 21 5.5 21H15.5C18.5376 21 21 18.5376 21 15.5V10.5C21 9.67157 20.3284 9 19.5 9C18.6716 9 18 9.67157 18 10.5V15.5C18 16.8807 16.8807 18 15.5 18H5.5C4.11929 18 3 16.8807 3 15.5V5.5Z" fill="#3C3C3C"/>
<path d="M18.4615 0.718656C18.17 0.427115 17.6973 0.427115 17.4058 0.718656L16.6702 1.4543L19.5457 4.32991L20.2813 3.59427C20.5729 3.30273 20.5729 2.83004 20.2813 2.5385L18.4615 0.718656Z" fill="#3C3C3C"/>
<path d="M16.177 2.22873C16.0992 2.15099 15.9732 2.15099 15.8954 2.22873L6.88226 11.2421C6.85068 11.2737 6.83193 11.3132 6.82601 11.3543C6.80195 11.3803 6.78539 11.4145 6.78141 11.4551L6.50086 14.3087C6.49011 14.418 6.58196 14.5099 6.69125 14.4991L9.54485 14.2186C9.58542 14.2146 9.61963 14.198 9.64569 14.174C9.68672 14.168 9.72625 14.1493 9.75781 14.1177L18.771 5.10434C18.8487 5.0266 18.8487 4.90055 18.771 4.82281L16.177 2.22873Z" fill="#3C3C3C"/>
</svg>
