<svg width="29" height="28" viewBox="0 0 29 28" fill="none" xmlns="http://www.w3.org/2000/svg">
<path fill-rule="evenodd" clip-rule="evenodd" d="M29 8.2734V20.2065C29 24.2076 27.1298 26.9557 23.8388 27.9954C23.3312 24.2362 19.3291 21.3172 14.5007 21.3172C9.6723 21.3172 5.6703 24.2364 5.1628 27.9957C5.16693 27.9971 5.17085 27.9986 5.17457 28L5.162 27.9957C1.8705 26.9562 0 24.2079 0 20.2065V8.2734C0 3.09007 3.1465 0 8.4245 0H20.5755C25.8535 0 29 3.09007 29 8.2734ZM14.4999 18.754C17.3709 18.754 19.6909 16.4614 19.6909 13.6419C19.6909 10.8224 17.3709 8.54397 14.4999 8.54397C11.6289 8.54397 9.30889 10.8224 9.30889 13.6419C9.30889 16.4614 11.6289 18.754 14.4999 18.754Z" fill="white"/>
</svg>
