<svg width="30" height="36" viewBox="0 0 30 36" fill="none" xmlns="http://www.w3.org/2000/svg">
<path d="M22.917 1.30122V4.00775C27.417 4.44149 29.6003 7.23477 29.9337 11.3813C29.9837 11.8671 29.5837 12.3008 29.1003 12.3008H0.900382C0.433715 12.3008 0.0337153 11.8845 0.0670486 11.3813C0.400382 7.23477 2.58371 4.44149 7.08371 4.00775V1.30122C7.08371 0.589885 7.65038 0 8.33371 0C9.01705 0 9.58371 0.589885 9.58371 1.30122V3.90365H20.417V1.30122C20.417 0.589885 20.9837 0 21.667 0C22.3503 0 22.917 0.589885 22.917 1.30122Z" fill="white"/>
<path fill-rule="evenodd" clip-rule="evenodd" d="M1.66667 14.903H28.3333C29.25 14.903 30 15.6837 30 16.6379V27.3252C30 32.5301 27.5 36 21.6667 36H8.33333C2.5 36 0 32.5301 0 27.3252V16.6379C0 15.6837 0.75 14.903 1.66667 14.903ZM10.2667 29.4978C10.2945 29.4727 10.3222 29.4476 10.35 29.4245C10.65 29.0949 10.8333 28.6438 10.8333 28.1927C10.8333 27.7416 10.65 27.2905 10.35 26.9609L10.1 26.7527C10 26.6833 9.9 26.6312 9.8 26.5965C9.7 26.5445 9.6 26.5098 9.5 26.4924C9.16667 26.423 8.83333 26.4577 8.53333 26.5965C8.31667 26.6833 8.15 26.8047 7.98333 26.9609C7.68333 27.2905 7.5 27.7416 7.5 28.1927C7.5 28.6438 7.68333 29.0949 7.98333 29.4245C8.15 29.5807 8.31667 29.7021 8.53333 29.7889C8.73333 29.8756 8.95 29.9277 9.16667 29.9277C9.2702 29.9277 9.3606 29.914 9.46118 29.8988C9.47394 29.8969 9.48686 29.8949 9.5 29.893C9.6 29.8756 9.7 29.8409 9.8 29.7889C9.9 29.7542 10 29.7021 10.1 29.6327C10.1556 29.598 10.2111 29.5479 10.2667 29.4978ZM9.16667 23.8553C9.6 23.8553 10.0333 23.6645 10.35 23.3522C10.65 23.0225 10.8333 22.5714 10.8333 22.1204C10.8333 21.6693 10.65 21.2182 10.35 20.8885C10.2 20.7324 10.0167 20.6109 9.8 20.5242C9.18333 20.2466 8.45 20.4027 7.98333 20.8885C7.68333 21.2182 7.5 21.6693 7.5 22.1204C7.5 22.5714 7.68333 23.0225 7.98333 23.3522C8.3 23.6645 8.73333 23.8553 9.16667 23.8553ZM15 29.9277C15.4333 29.9277 15.8667 29.7368 16.1833 29.4245C16.4833 29.0949 16.6667 28.6438 16.6667 28.1927C16.6667 27.7416 16.4833 27.2905 16.1833 26.9609C15.5667 26.3189 14.4333 26.3189 13.8167 26.9609C13.5167 27.2905 13.3333 27.7416 13.3333 28.1927C13.3333 28.6438 13.5167 29.0949 13.8167 29.4245C14.1333 29.7368 14.5667 29.9277 15 29.9277ZM15.9333 23.5604L16.1833 23.3522C16.4833 23.0225 16.6667 22.5714 16.6667 22.1204C16.6667 21.6693 16.4833 21.2182 16.1833 20.8885C15.7167 20.4027 14.9833 20.2466 14.3667 20.5242C14.15 20.6109 13.9667 20.7324 13.8167 20.8885C13.5167 21.2182 13.3333 21.6693 13.3333 22.1204C13.3333 22.5714 13.5167 23.0225 13.8167 23.3522C14.1333 23.6645 14.5667 23.8553 15 23.8553C15.1035 23.8553 15.194 23.8416 15.2945 23.8264C15.3073 23.8245 15.3202 23.8226 15.3333 23.8206C15.4333 23.8033 15.5333 23.7686 15.6333 23.7165C15.7333 23.6818 15.8333 23.6298 15.9333 23.5604ZM20.8333 29.9277C21.2667 29.9277 21.7 29.7368 22.0167 29.4245C22.3167 29.0949 22.5 28.6438 22.5 28.1927C22.5 27.7416 22.3167 27.2905 22.0167 26.9609C21.4 26.3189 20.2667 26.3189 19.65 26.9609C19.35 27.2905 19.1667 27.7416 19.1667 28.1927C19.1667 28.6438 19.35 29.0949 19.65 29.4245C19.9667 29.7368 20.4 29.9277 20.8333 29.9277ZM21.7667 23.5604L22.0167 23.3522C22.3167 23.0225 22.5 22.5714 22.5 22.1204C22.5 21.6693 22.3167 21.2182 22.0167 20.8885L21.7667 20.6803C21.6667 20.6109 21.5667 20.5589 21.4667 20.5242C21.3667 20.4721 21.2667 20.4374 21.1667 20.4201C20.8333 20.3507 20.5 20.3854 20.2 20.5242C19.9833 20.6109 19.8167 20.7324 19.65 20.8885C19.35 21.2182 19.1667 21.6693 19.1667 22.1204C19.1667 22.5714 19.35 23.0225 19.65 23.3522C19.9667 23.6645 20.4 23.8553 20.8333 23.8553C20.9333 23.8553 21.05 23.838 21.1667 23.8206C21.2667 23.8033 21.3667 23.7686 21.4667 23.7165C21.5667 23.6818 21.6667 23.6298 21.7667 23.5604Z" fill="white"/>
</svg>
