<svg width="28" height="33" viewBox="0 0 28 33" fill="none" xmlns="http://www.w3.org/2000/svg">
<path d="M10.2239 0H17.7784C19.4501 0 20.8163 1.38603 20.8002 3.10208V4.65312C20.8002 6.36916 19.4501 7.75519 17.7784 7.75519H10.2078C8.53614 7.75519 7.18597 6.36916 7.18597 4.65312V3.10208C7.18597 1.38603 8.55221 0 10.2239 0Z" fill="white"/>
<path fill-rule="evenodd" clip-rule="evenodd" d="M17.7773 9.42089C20.333 9.42089 22.4225 7.27584 22.4225 4.65228C22.4225 3.72825 23.3869 3.15074 24.1906 3.57975C26.4569 4.81728 28 7.27584 28 10.0974V25.6243C28 29.6834 24.7692 33 20.8152 33H7.18483C3.23076 33 0 29.6834 0 25.6243V10.0974C0 7.27584 1.54305 4.81728 3.80941 3.57975C4.61308 3.15074 5.57748 3.72825 5.57748 4.65228C5.57748 7.27584 7.66703 9.42089 10.2227 9.42089H17.7773ZM12.9392 24.3043L19.3686 17.7041C19.8347 17.2256 19.8347 16.4336 19.3686 15.9551C18.9024 15.4766 18.1309 15.4766 17.6648 15.9551L12.0873 21.6807L10.5281 20.0802C10.062 19.6017 9.29045 19.6017 8.82432 20.0802C8.35819 20.5587 8.35819 21.3507 8.82432 21.8292L11.2354 24.3043C11.4765 24.5518 11.7819 24.6673 12.0873 24.6673C12.3927 24.6673 12.6981 24.5518 12.9392 24.3043Z" fill="white"/>
</svg>
